<?xml version="1.0" encoding="utf-8"?>
<!-- Generator: Adobe Illustrator 22.0.0, SVG Export Plug-In . SVG Version: 6.00 Build 0)  -->
<svg version="1.1" id="Layer_1" xmlns="http://www.w3.org/2000/svg" xmlns:xlink="http://www.w3.org/1999/xlink" x="0px" y="0px"
	 viewBox="0 0 251.5 180.7" style="enable-background:new 0 0 251.5 180.7;" xml:space="preserve">


<path d="M198.9,93.1c-1.5-1.5-4-1.5-5.6,0l-33.5,33.5l0,0l-20.9-20.9c-1.5-1.5-4-1.5-5.6,0l0,0c-1.5,1.5-1.5,4,0,5.6L157,135
	c1.5,1.5,4,1.5,5.6,0l36.3-36.3C200.5,97.2,200.5,94.7,198.9,93.1L198.9,93.1z"/>
	<style>
		svg#Layer_1 {
			width: 40px;
			height: 40px;
			margin: -12px -13px;
			fill:#8c8c8c;
		}
	</style>
<g>
	<path d="M133.9,131.5h-30.6c-5.6,0-10.2-4.6-10.2-10.2v-5.3c0-13.5,11.2-24.7,24.7-24.7h16.1c9.2,0,17.4,4.9,21.7,13.2
		c1,1.6,3,2.3,4.6,1.3c1.6-1,2.3-3,1.3-4.6c-4.3-8.2-11.8-13.8-20.4-15.8c5.3-4.3,8.2-10.9,8.2-18.1c0-13.2-10.5-23.7-23.7-23.7
		S102,54.2,102,67.4c0,7.2,3.3,13.8,8.2,18.1c-13.8,3.3-24,15.8-24,30.3v5.3c0,9.2,7.6,16.8,16.8,16.8h30.6c2,0,3.3-1.3,3.3-3.3
		C136.9,132.5,135.9,131.5,133.9,131.5z M108.6,67.7c0-9.5,7.6-17.1,17.1-17.1s17.1,7.6,17.1,17.1s-7.6,17.1-17.1,17.1
		S108.6,77.3,108.6,67.7z"/>
</g>
</svg>
